PathFileType  4	(X/Y/Z) C:\Users\antoi\Documents\MyRepositories\mobilecap\ResultsAnalysis
DataRate	CameraRate	NumFrames	NumMarkers	Units	OrigDataRate	OrigDataStartFrame	OrigNumFrames
100.0	100.0	6	51	mm	100.0	124	141
Frame#	Time	r_knee			r_shank_antsup			r_ankle			r_calc			r_5meta			r_toe			L_knee			L_shank_antsup			L_ankle			L_calc			L_5meta			L_toe			r_sh2			r_sh3			r_sh4			L_sh2			L_sh3			r_thigh1			r_thigh2			r_thigh3			r_thigh4			r_thigh5			L_thigh1			L_thigh2			L_thigh3			L_thigh4			r.ASIS			r.PSIS			L.ASIS			L.PSIS			C7			R_Shoulder			L_Shoulder			R_Sternum			L_Sternum			R_humerus			R_elbow_med			R_elbow_lat			R_forearm			R_wrist_radius			R_wrist_ulna			L_humerus			L_elbow_med			L_elbow_lat			L_forearm			L_wrist_radius			L_wrist_ulna			R_HJC			L_HJC			R_HJC_reg			L_HJC_reg			
		X1	Y1	Z1	X2	Y2	Z2	X3	Y3	Z3	X4	Y4	Z4	X5	Y5	Z5	X6	Y6	Z6	X7	Y7	Z7	X8	Y8	Z8	X9	Y9	Z9	X10	Y10	Z10	X11	Y11	Z11	X12	Y12	Z12	X13	Y13	Z13	X14	Y14	Z14	X15	Y15	Z15	X16	Y16	Z16	X17	Y17	Z17	X18	Y18	Z18	X19	Y19	Z19	X20	Y20	Z20	X21	Y21	Z21	X22	Y22	Z22	X23	Y23	Z23	X24	Y24	Z24	X25	Y25	Z25	X26	Y26	Z26	X27	Y27	Z27	X28	Y28	Z28	X29	Y29	Z29	X30	Y30	Z30	X31	Y31	Z31	X32	Y32	Z32	X33	Y33	Z33	X34	Y34	Z34	X35	Y35	Z35	X36	Y36	Z36	X37	Y37	Z37	X38	Y38	Z38	X39	Y39	Z39	X40	Y40	Z40	X41	Y41	Z41	X42	Y42	Z42	X43	Y43	Z43	X44	Y44	Z44	X45	Y45	Z45	X46	Y46	Z46	X47	Y47	Z47	X48	Y48	Z48	X49	Y49	Z49	X50	Y50	Z50	X51	Y51	Z51	

124	1.23000000	1438.08785	521.29050	-48.05369	1482.19881	452.93441	-46.00163	1529.31112	94.46342	-80.93756	1471.77635	47.16764	-121.66605	1684.35365	45.95157	-67.55066	1710.01301	85.18951	-124.11780	1223.31008	512.68414	-330.63673	1173.70261	395.67063	-338.46821	926.27500	174.42207	-283.68208	844.67749	179.68893	-242.42096	1033.67878	50.79424	-240.25148	1008.62593	31.26802	-305.51909	1513.35428	344.24202	-44.55082	1414.55035	432.75082	-15.10523	1433.52278	320.86298	-24.24628	1109.27514	460.89933	-342.92632	1032.13800	368.03624	-334.29693	1435.88042	844.30455	-16.12763	1469.43723	739.73954	-32.75840	1426.34232	696.91712	0.57379	1329.80882	806.28110	-2.68232	1368.88238	697.06706	-9.36728	1345.39971	823.82939	-354.59290	1340.34220	687.14226	-351.45986	1226.65125	830.21928	-348.12369	1229.83554	687.27558	-347.43105	1416.07849	1030.49865	-61.97277	1213.31694	1065.77206	-117.42500	1389.33131	1012.26964	-321.16173	1201.09432	1064.44799	-220.03472	1191.42037	1570.25775	-191.09741	1254.29350	1520.73448	-11.74404	1267.10394	1534.13650	-350.25943	1343.97477	1500.13310	-154.61245	1346.31468	1498.44750	-208.78919	1216.39349	1251.82329	77.90337	1175.71762	1163.57412	4.44192	1187.58816	1169.37450	87.80928	1235.92402	1018.35868	114.05051	1264.84580	905.35419	111.12485	1223.06629	912.10741	126.03322	1342.67977	1297.62109	-455.33246	1323.53289	1182.29008	-414.26970	1356.77375	1207.26869	-473.35164	1510.15693	1121.56051	-456.58539	1595.40329	1080.85133	-423.58306	1580.60551	1051.05793	-446.80717	1330.38254	951.89836	-54.04721	1305.76158	938.61579	-282.71372	1340.75045	945.50779	-89.06307	1320.36052	943.30574	-260.21818	
125	1.24000000	1448.05814	522.14528	-46.84238	1491.39408	452.91972	-45.20206	1532.56694	94.04608	-80.69383	1473.16936	48.79043	-121.68545	1686.06897	41.59958	-67.65284	1712.95884	79.96039	-124.38310	1246.22581	512.11898	-333.56933	1193.36979	397.25166	-342.17226	939.51292	184.00238	-285.12183	859.07092	195.55126	-243.23678	1037.76882	52.87846	-240.71590	1010.48714	34.24928	-305.35076	1521.12881	343.83725	-43.93675	1423.97030	433.66293	-13.38626	1441.29038	321.50024	-22.59558	1131.20548	464.69528	-344.50609	1050.99055	374.63346	-335.09626	1448.44324	845.52716	-14.45423	1481.12508	740.70671	-31.18809	1438.02524	698.28469	2.56308	1342.17265	808.29554	-0.79332	1379.99688	698.38933	-7.36400	1362.70437	824.60242	-354.51214	1360.27302	687.75722	-353.73046	1244.04458	828.47565	-346.24402	1249.80239	685.96473	-348.17124	1430.21538	1032.04500	-60.53863	1227.42373	1067.22589	-116.75563	1404.24811	1012.69182	-319.51578	1215.56040	1064.75589	-219.46515	1204.19876	1570.83194	-188.99673	1267.78488	1521.30694	-9.96350	1279.15182	1535.21900	-348.59198	1357.03806	1501.29656	-153.05343	1359.22203	1499.69400	-207.23790	1231.86566	1252.02110	79.48622	1191.38365	1163.63580	6.15964	1203.62973	1169.38393	89.47010	1253.29277	1018.68042	115.19533	1283.21467	905.94122	111.90692	1241.42214	912.29168	127.00335	1353.29908	1297.75102	-453.30409	1333.14647	1182.63574	-411.91445	1366.39545	1207.19899	-471.14426	1518.11810	1118.53748	-455.55424	1602.63424	1075.86621	-422.92288	1586.97667	1046.43206	-446.20330	1344.48444	953.52603	-52.41253	1320.62644	939.01632	-281.07720	1354.69899	947.87983	-86.95331	1334.93898	943.77041	-258.01166	
126	1.25000000	1457.62570	523.17841	-45.64480	1500.12294	453.09015	-44.36076	1535.12797	93.71974	-80.43292	1474.28355	50.09212	-121.64761	1687.28842	38.27586	-67.58552	1715.09713	75.70349	-124.58958	1270.20640	511.45086	-336.40090	1214.45434	398.91320	-345.63389	954.43106	194.11931	-286.75874	875.50407	212.06264	-244.47273	1042.73776	55.90761	-241.26010	1013.22767	38.43098	-305.26036	1528.32783	343.61041	-43.30882	1432.94237	434.80825	-11.57346	1448.50016	322.40991	-20.80680	1154.71155	468.36811	-346.41520	1071.58766	381.22964	-336.08687	1460.98138	847.03842	-12.59803	1492.86664	742.04171	-29.60462	1449.61472	699.91595	4.10205	1354.47803	810.56415	1.12847	1391.29980	700.07627	-5.37816	1379.95313	825.45871	-354.70640	1380.48390	688.51312	-356.23679	1261.46228	826.40629	-344.40646	1270.05727	684.56800	-348.94600	1443.83551	1033.79716	-59.01644	1241.09644	1068.79162	-116.31984	1418.75658	1013.12078	-317.82271	1229.63174	1065.15410	-219.11450	1216.99303	1571.56397	-186.94307	1281.29158	1522.03080	-8.25468	1291.15885	1536.42701	-347.00554	1370.05460	1502.54616	-151.56790	1372.08419	1501.02589	-205.75458	1247.52609	1252.37364	81.03725	1207.24933	1163.76297	7.93170	1219.89210	1169.55034	91.18688	1270.99265	1019.21007	116.37245	1301.98476	906.75944	112.71133	1260.18357	912.68130	128.04076	1363.71707	1297.92106	-451.30727	1342.59550	1183.07551	-409.50174	1375.79023	1207.18769	-468.91062	1525.67504	1115.42139	-454.59393	1609.31471	1070.58795	-422.41179	1592.79627	1041.61735	-445.74896	1358.03416	955.35988	-50.77024	1335.13562	939.44446	-279.43068	1368.18271	950.34547	-84.78902	1349.11207	944.29674	-255.76952	
127	1.26000000	1466.58062	524.27922	-44.54557	1508.20269	453.38157	-43.59985	1537.03928	93.48852	-80.28618	1475.10283	51.04936	-121.59056	1688.08516	35.97888	-67.48207	1716.48873	72.40004	-124.88445	1295.08808	510.78628	-338.97398	1236.80984	400.66704	-348.62635	970.98266	204.66931	-288.54907	893.99979	228.95982	-246.06473	1048.74593	59.82529	-241.89410	1017.00277	43.83859	-305.25090	1534.80620	343.50181	-42.80245	1441.23727	436.06710	-9.88036	1454.98655	323.47798	-19.17301	1179.59997	471.91772	-348.53736	1093.79396	387.76145	-337.20592	1473.53125	848.69128	-10.68305	1504.60791	743.53431	-28.05543	1460.96625	701.66824	5.11235	1366.71052	813.03840	2.94128	1402.65289	702.04738	-3.57296	1397.00774	826.40274	-355.10594	1400.79550	689.42862	-358.79087	1278.79467	824.10259	-342.66532	1290.43602	683.16256	-349.60857	1456.96432	1035.72467	-57.48019	1254.36760	1070.41342	-116.07867	1432.82952	1013.54523	-316.14704	1243.29943	1065.60764	-218.93386	1229.79583	1572.44497	-184.97313	1294.81351	1522.89442	-6.62940	1303.16524	1537.72955	-345.50483	1383.02158	1503.84354	-150.16948	1384.89723	1502.39392	-204.35018	1263.36737	1252.88289	82.55341	1223.32919	1163.90929	9.71277	1236.35918	1169.86951	92.94786	1289.01236	1019.95162	117.57074	1321.13405	907.81758	113.52874	1279.32638	913.27493	129.13300	1373.92561	1298.09339	-449.35177	1351.85677	1183.60173	-407.03958	1384.95433	1207.21438	-466.66064	1532.81681	1112.20514	-453.66587	1615.41987	1065.02110	-422.05090	1598.08295	1036.64098	-445.44275	1371.09598	957.35254	-49.15571	1349.26558	939.88146	-277.80080	1381.25418	952.85464	-82.63198	1362.86259	944.86881	-253.54256	
128	1.27000000	1474.75805	525.35857	-43.58179	1515.48286	453.73049	-42.96055	1538.38708	93.34951	-80.30714	1475.64484	51.68629	-121.54278	1688.56337	34.57921	-67.42089	1717.25293	69.92187	-125.33212	1320.67970	510.28175	-341.19055	1260.26505	402.53937	-351.01089	989.05256	215.52302	-290.42504	914.49969	245.92633	-247.85947	1055.97534	64.49493	-242.65258	1021.98136	50.39491	-305.32421	1540.45120	343.45748	-42.45332	1448.63829	437.33822	-8.49292	1460.59837	324.59196	-17.93168	1205.61369	475.37799	-350.73558	1117.38794	394.17772	-338.38681	1486.01176	850.32094	-8.82953	1516.16964	744.95768	-26.55990	1471.90154	703.39336	5.69999	1378.77989	815.63466	4.56083	1413.80551	704.17795	-2.04996	1413.78082	827.46351	-355.59674	1421.07408	690.55455	-361.19111	1295.96138	821.71436	-341.08388	1310.83197	681.84210	-350.06360	1469.67842	1037.76449	-56.00950	1267.30120	1072.04539	-115.96775	1446.48451	1013.98942	-314.55326	1256.58795	1066.09226	-218.85351	1242.58956	1573.46746	-183.11327	1308.34688	1523.88388	-5.09734	1315.19946	1539.09788	-344.09938	1395.93181	1505.15971	-148.87053	1397.65439	1503.76043	-203.03395	1279.37397	1253.55245	84.04352	1239.62810	1164.03958	11.46705	1253.01341	1170.33782	94.74283	1307.34275	1020.90996	118.77811	1340.64028	909.12579	114.34725	1298.82729	914.06866	130.26060	1383.92040	1298.23645	-447.43897	1360.90720	1184.21040	-404.53515	1393.88239	1207.26141	-464.39635	1539.53250	1108.88205	-452.74051	1620.93168	1059.18422	-421.83820	1602.84800	1031.52960	-445.27680	1383.77721	959.43207	-47.61472	1363.02470	940.33704	-276.22927	1393.99479	955.37453	-80.54830	1376.20707	945.48898	-251.38144	
129	1.28000000	1482.06366	526.35969	-42.74313	1521.88175	454.08315	-42.41134	1539.28025	93.29053	-80.47780	1475.95839	52.06232	-121.52027	1688.82949	33.86424	-67.41717	1717.54557	68.08799	-125.90982	1346.77619	510.11654	-343.01685	1284.64862	404.55416	-352.74724	1008.47474	226.51927	-292.29249	936.83032	262.58729	-249.62578	1064.65318	69.73714	-243.60709	1028.39420	57.93765	-305.50563	1545.21535	343.43580	-42.21057	1455.00413	438.55416	-7.52189	1465.24447	325.66777	-17.20336	1232.47320	478.79496	-352.88000	1142.09747	400.42329	-339.57778	1498.24864	851.77601	-7.12139	1527.28962	746.11313	-25.11986	1482.23923	704.96026	6.09574	1390.54307	818.25042	5.96651	1424.47210	706.33881	-0.83535	1430.26379	828.69148	-356.04284	1441.25917	691.96831	-363.25548	1312.93450	819.42018	-339.72691	1331.22262	680.70166	-350.29628	1482.09847	1039.83770	-54.67206	1279.97873	1073.65460	-115.91019	1459.76940	1014.51265	-313.09842	1269.54835	1066.60268	-218.79536	1255.35168	1574.62686	-181.38101	1321.88364	1524.98505	-3.66748	1327.27906	1540.50359	-342.80009	1408.77474	1506.47616	-147.68167	1410.34550	1505.10347	-201.81347	1295.52522	1254.38399	85.52138	1256.12714	1164.14512	13.18231	1269.83914	1170.95326	96.56348	1325.97368	1022.08915	119.98219	1360.48138	910.69282	115.15323	1318.66743	915.06090	131.40019	1393.70682	1298.33399	-445.56610	1369.73956	1184.89603	-401.99478	1402.57403	1207.31499	-462.11519	1545.81330	1105.45120	-451.80755	1625.85022	1053.11930	-421.76444	1607.08700	1026.31181	-445.23233	1396.21266	961.51653	-46.19656	1376.44905	940.84986	-274.76697	1406.50488	957.88183	-78.60146	1389.19674	946.17860	-249.33844	
